#!OML:ASF E:\Mandelcareful walks\Project 1\Capture day 1\Session 1\Subject1.ASF
:FULLY-SPECIFIED
:DEGREES
351
root -1.8391 15.8949 -1.79977 -192.879 101.176 -201.587
lowerback 35.3366 2.27383 -3.571
upperback 10.1517 2.59866 -0.662983
thorax -6.51502 1.64033 0.194797
lowerneck -26.9251 3.12606 -0.116579
upperneck 26.5667 6.35011 -4.92439
head 13.6867 2.06401 -0.696507
rclavicle 1.23246e-014 -3.97569e-016
rhumerus -9.87248 12.557 -74.7603
rradius 52.4986
rwrist -18.6579
rhand -12.9019 -25.7306
rfingers 7.12502
rthumb 13.1877 -55.2935
lclavicle 1.23246e-014 -3.97569e-016
lhumerus -9.39334 -16.9089 77.3857
lradius 43.9964
lwrist 23.5877
lhand -25.5484 -12.3597
lfingers 7.12502
lthumb 0.981904 17.6178
rfemur -38.3975 -8.50538 11.3536
rtibia 47.5174
rfoot -16.4427 -1.82284
rtoes -10.9669
lfemur -40.9108 11.1028 -21.8731
ltibia 55.2269
lfoot -24.4539 4.79549
ltoes 12.9704
352
root -1.81425 15.8986 -1.79004 -192.75 100.913 -201.543
lowerback 35.5094 2.18236 -3.60185
upperback 9.96093 2.44791 -0.673239
thorax -6.78227 1.5673 0.243629
lowerneck -26.8667 3.10325 -0.297025
upperneck 26.6456 6.34709 -4.75563
head 13.6938 2.06815 -0.601035
rclavicle -6.75868e-015 1.59028e-014
rhumerus -10.2358 12.4523 -74.8396
rradius 52.4519
rwrist -18.6934
rhand -12.9587 -26.0378
rfingers 7.12502
rthumb 13.133 -55.6042
lclavicle -6.75868e-015 1.59028e-014
lhumerus -9.69408 -17.1062 77.5911
lradius 44.267
lwrist 23.7797
lhand -25.3167 -12.1505
lfingers 7.12502
lthumb 1.20574 17.8258
rfemur -38.7726 -8.41599 11.2315
rtibia 46.2057
rfoot -16.3393 -1.58651
rtoes -9.867
lfemur -40.8628 10.9308 -21.9651
ltibia 55.1383
lfoot -24.6227 4.72358
ltoes 13.3734
353
root -1.73713 15.9137 -1.78975 -192.705 101.619 -201.017
lowerback 35.566 2.43645 -3.57287
upperback 10.1789 2.78692 -0.754259
thorax -6.56623 1.73388 0.0242533
lowerneck -27.0546 3.06755 -0.201821
upperneck 26.6631 6.3077 -4.9002
head 13.7485 2.03549 -0.67985
rclavicle -5.56597e-015 -1.15295e-014
rhumerus -10.333 12.158 -74.7937
rradius 52.3959
rwrist -18.7598
rhand -12.9977 -25.8204
rfingers 7.12502
rthumb 13.0955 -55.3892
lclavicle -5.56597e-015 -1.15295e-014
lhumerus -9.55386 -17.3264 77.7652
lradius 44.4896
lwrist 23.7927
lhand -25.0668 -12.0453
lfingers 7.12502
lthumb 1.44704 17.9295
rfemur -38.457 -7.50635 11.1462
rtibia 44.8391
rfoot -16.3437 -1.17211
rtoes -8.26481
lfemur -39.8392 11.4647 -21.753
ltibia 55.0126
lfoot -25.1829 4.77445
ltoes 13.8679
354
root -1.73594 15.9098 -1.76002 -193.695 100.872 -202.312
lowerback 35.5625 2.18825 -3.51106
upperback 10.0328 2.49956 -0.636307
thorax -6.72345 1.59453 0.216405
lowerneck -27.0482 3.08047 -0.0327561
upperneck 26.6225 6.27999 -4.99515
head 13.7393 2.02842 -0.751044
rclavicle -1.74931e-014 2.78299e-015
rhumerus -10.5796 12.0178 -74.7773
rradius 52.3332
rwrist -18.8854
rhand -13.095 -25.2131
rfingers 7.12502
rthumb 13.0017 -54.788
lclavicle -1.74931e-014 2.78299e-015
lhumerus -9.4733 -17.3738 77.9761
lradius 44.5628
lwrist 23.6197
lhand -25.1866 -12.3528
lfingers 7.12502
lthumb 1.33131 17.6228
rfemur -38.8802 -7.55851 11.0985
rtibia 43.7059
rfoot -16.2816 -1.50428
rtoes -7.56779
lfemur -40.187 10.9951 -21.7055
ltibia 54.9633
lfoot -24.9609 4.50208
ltoes 13.9553
355
root -1.69963 15.9204 -1.73589 -194.114 100.715 -202.587
lowerback 35.7569 2.18445 -3.62265
upperback 9.90823 2.44227 -0.599666
thorax -6.93137 1.56614 0.324251
lowerneck -26.7703 3.11076 0.0751663
upperneck 26.5662 6.23813 -4.90592
head 13.6566 2.04231 -0.74447
rclavicle -2.46493e-014 -6.75868e-015
rhumerus -11.0605 11.9446 -74.8551
rradius 52.3148
rwrist -18.9891
rhand -13.1414 -25.0691
rfingers 7.12502
rthumb 12.9568 -54.6468
lclavicle -2.46493e-014 -6.75868e-015
lhumerus -9.69729 -17.3451 78.2602
lradius 44.6626
lwrist 23.4461
lhand -25.2912 -12.4035
lfingers 7.12502
lthumb 1.23029 17.5727
rfemur -38.7324 -7.22758 10.9436
rtibia 42.5627
rfoot -16.1155 -1.68749
rtoes -7.35976
lfemur -39.7885 10.9847 -21.6047
ltibia 54.8557
lfoot -24.8899 4.39964
ltoes 13.6823
356
root -1.67718 15.9272 -1.70226 -194.565 100.255 -203.097
lowerback 35.8614 2.11456 -3.78793
upperback 9.69929 2.28367 -0.497928
thorax -7.20098 1.48687 0.567459
lowerneck -26.4646 3.15028 0.141468
upperneck 26.5417 6.26447 -4.90722
head 13.5875 2.06875 -0.753855
rclavicle -2.38542e-015 -2.0276e-014
rhumerus -11.4655 11.8448 -74.9431
rradius 52.2675
rwrist -18.9989
rhand -13.0954 -25.5474
rfingers 7.12502
rthumb 13.0012 -55.1223
lclavicle -2.38542e-015 -2.0276e-014
lhumerus -10.0998 -17.2825 78.6126
lradius 44.8776
lwrist 23.0685
lhand -25.0777 -11.84
lfingers 7.12502
lthumb 1.43649 18.1349
rfemur -38.7439 -7.01329 10.7207
rtibia 41.5883
rfoot -15.707 -1.93899
rtoes -6.74925
lfemur -39.7296 10.8055 -21.5808
ltibia 54.786
lfoot -24.6008 4.25617
ltoes 13.171
357
root -1.64964 15.9324 -1.66812 -195.439 99.8905 -204.054
lowerback 35.7062 2.02139 -3.79995
upperback 9.72921 2.18534 -0.392769
thorax -7.1146 1.43858 0.726406
lowerneck -26.5398 3.15307 0.104547
upperneck 26.4658 6.28231 -4.92611
head 13.5712 2.0696 -0.750779
rclavicle 5.96354e-015 -2.38542e-014
rhumerus -11.4384 11.5 -74.9408
rradius 52.1211
rwrist -18.8948
rhand -13.0032 -25.9882
rfingers 7.12502
rthumb 13.0901 -55.5574
lclavicle 5.96354e-015 -2.38542e-014
lhumerus -10.0959 -17.1835 78.8616
lradius 45.0826
lwrist 22.7557
lhand -24.9563 -11.7522
lfingers 7.12502
lthumb 1.55378 18.2219
rfemur -38.6626 -6.76498 10.585
rtibia 40.5713
rfoot -14.8945 -1.94263
rtoes -5.78311
lfemur -39.6778 10.6654 -21.4536
ltibia 54.7054
lfoot -24.4968 4.11417
ltoes 12.8594
358
root -1.60036 15.9422 -1.64172 -195.983 99.9374 -204.54
lowerback 35.5392 2.06171 -3.69856
upperback 9.81376 2.29036 -0.327894
thorax -6.96748 1.48673 0.7104
lowerneck -26.6993 3.09956 -0.0228865
upperneck 26.385 6.23272 -4.86975
head 13.561 2.04099 -0.715203
rclavicle -1.82882e-014 7.15625e-015
rhumerus -11.5669 10.945 -74.8809
rradius 52.0856
rwrist -18.6567
rhand -12.8909 -25.9068
rfingers 7.12502
rthumb 13.1983 -55.469
lclavicle -1.82882e-014 7.15625e-015
lhumerus -9.94364 -17.1331 79.1771
lradius 45.2244
lwrist 22.6777
lhand -24.7929 -11.8818
lfingers 7.12502
lthumb 1.7116 18.091
rfemur -38.4603 -6.277 10.4544
rtibia 39.642
rfoot -13.7026 -1.68687
rtoes -4.87858
lfemur -39.3587 10.7606 -21.26
ltibia 54.6401
lfoot -24.7678 4.04022
ltoes 13.1444
359
root -1.55807 15.951 -1.60609 -196.169 99.7673 -204.684
lowerback 35.4988 2.05119 -3.69882
upperback 9.77304 2.27529 -0.328491
thorax -6.99745 1.4794 0.715618
lowerneck -26.5983 3.09131 -0.0470104
upperneck 26.2309 6.18321 -4.77937
head 13.4693 2.03568 -0.686016
rclavicle -1.94809e-014 -3.97569e-016
rhumerus -11.8938 10.562 -75.0298
rradius 52.1112
rwrist -18.5933
rhand -12.8655 -26.1064
rfingers 7.12502
rthumb 13.2228 -55.667
lclavicle -1.94809e-014 -3.97569e-016
lhumerus -9.91852 -17.2476 79.3843
lradius 45.3832
lwrist 22.8216
lhand -24.5535 -11.4499
lfingers 7.12502
lthumb 1.94281 18.521
rfemur -38.1694 -5.84062 10.1826
rtibia 38.6949
rfoot -12.229 -1.53875
rtoes -4.22343
lfemur -39.0822 10.7713 -21.1703
ltibia 54.5549
lfoot -24.9063 3.84777
ltoes 13.486
